<?xml version="1.0" encoding="UTF-8" standalone="no"?>
<!-- Created with Inkscape (http://www.inkscape.org/) -->
<svg xmlns="http://www.w3.org/2000/svg" xmlns:xlink="http://www.w3.org/1999/xlink" width="1057px" height="400px" viewBox="0 0 532 400" version="1.1">
<g id="surface1">
<path style=" stroke:none;fill-rule:nonzero;fill:rgb(3%,23%,0%);fill-opacity:1;" d="M 195.261719 2.765625 C 183.042969 6.089844 172.605469 15.253906 168.308594 26.445312 C 163.949219 37.699219 164.253906 47.601562 169.289062 57.8125 C 172.421875 64.269531 177.949219 69.433594 189.121094 76.566406 L 198.027344 82.226562 L 198.027344 149.015625 L 180.21875 154.121094 C 170.457031 156.949219 161.984375 159.285156 161.429688 159.285156 C 160.816406 159.285156 158.605469 156.886719 156.273438 153.75 L 152.097656 148.15625 L 154.183594 143.726562 C 156.148438 139.605469 156.273438 138.867188 156.273438 133.148438 C 156.273438 127.429688 156.148438 126.691406 154.246094 122.878906 C 150.867188 115.988281 145.035156 111.625 137.050781 110.085938 C 127.414062 108.179688 116.238281 114.082031 111.878906 123.492188 C 110.402344 126.566406 110.21875 127.738281 110.21875 133.148438 C 110.21875 138.867188 110.34375 139.605469 112.183594 143.296875 C 114.640625 148.277344 119 152.828125 123.421875 154.921875 C 126.613281 156.457031 127.226562 156.519531 134.902344 156.335938 L 143.007812 156.210938 L 145.15625 158.054688 C 146.324219 159.101562 148.414062 161.5625 149.761719 163.53125 L 152.15625 167.097656 L 148.597656 170.234375 C 141.042969 176.9375 133.121094 188.375 129.253906 198.339844 C 122.070312 216.542969 121.578125 235.054688 127.78125 253.691406 C 131.402344 264.636719 136.378906 273.246094 143.746094 281.304688 L 146.878906 284.746094 L 145.402344 286.46875 C 143.253906 289.175781 121.824219 312.792969 117.832031 316.851562 C 113.78125 321.09375 112.859375 321.21875 106.71875 318.511719 C 95.359375 313.53125 84.675781 313.777344 73.132812 319.3125 C 69.015625 321.277344 66.929688 322.753906 63.308594 326.507812 C 51.085938 338.746094 48.324219 356.273438 56 372.078125 C 63.429688 387.390625 81.359375 396.125 98.246094 392.742188 C 108.867188 390.589844 117.464844 384.871094 123.359375 376.015625 C 132.203125 362.855469 132.203125 345.816406 123.484375 331.980469 L 121.703125 329.210938 L 138.585938 310.699219 L 155.472656 292.1875 L 166.15625 297.539062 L 176.902344 302.890625 L 176.535156 305.351562 C 175.984375 308.609375 174.078125 312.546875 172.605469 313.46875 C 171.929688 313.898438 169.535156 314.636719 167.203125 315.191406 C 162.167969 316.359375 159.035156 318.390625 156.578125 322.140625 C 151.296875 330.136719 151.851562 339.914062 157.929688 346.554688 C 163.640625 352.828125 171.378906 354.859375 179.296875 352.152344 C 183.84375 350.554688 189.675781 344.773438 191.148438 340.46875 C 193.238281 334.316406 192.070312 327.796875 187.773438 321.832031 C 184.886719 317.773438 184.703125 316.667969 186.296875 311.746094 C 188.507812 305.042969 187.710938 305.351562 202.816406 305.351562 L 215.832031 305.351562 L 219.027344 320.109375 C 220.746094 328.230469 222.21875 335.484375 222.21875 336.222656 C 222.28125 337.023438 220.808594 339.238281 218.597656 341.757812 C 213.191406 347.847656 211.535156 351.597656 211.535156 357.320312 C 211.597656 360.945312 211.902344 362.609375 213.070312 365.007812 C 217.429688 373.863281 227.5 378.351562 236.773438 375.398438 C 252.738281 370.355469 255.378906 349.015625 241.132812 340.097656 C 234.683594 336.101562 234.007812 335.300781 232.65625 330.566406 C 231.984375 328.167969 230.507812 321.585938 229.34375 315.867188 C 226.515625 302.277344 225.902344 303.320312 239.78125 296.800781 L 250.21875 291.945312 L 273.675781 315.804688 C 286.570312 328.90625 297.253906 340.28125 297.4375 341.082031 C 297.683594 341.882812 297.253906 344.527344 296.578125 346.988281 C 293.816406 357.074219 296.210938 366.234375 303.578125 373.679688 C 319.359375 389.484375 346.007812 380.933594 350 358.734375 C 352.578125 344.097656 342.140625 329.890625 326.726562 327.183594 C 321.753906 326.261719 315.984375 327.183594 310.703125 329.703125 L 306.832031 331.488281 L 282.824219 307.6875 L 258.753906 283.824219 L 261.886719 280.136719 C 271.464844 268.878906 275.640625 260.886719 279.203125 247.234375 C 281.289062 239.359375 281.84375 223.984375 280.367188 215.128906 C 277.421875 197.109375 269.4375 182.78125 255.132812 169.679688 C 253.105469 167.835938 250.832031 165.867188 250.035156 165.3125 L 248.621094 164.328125 L 251.691406 158.792969 C 253.351562 155.71875 255.5625 151.476562 256.542969 149.324219 C 259.246094 143.417969 259.921875 142.988281 266 143.664062 C 281.535156 145.324219 291.542969 142.128906 301.246094 132.535156 C 306.585938 127.183594 309.902344 121.648438 311.621094 115.253906 C 312.914062 110.457031 312.914062 100.429688 311.621094 95.632812 C 306.648438 76.8125 290.5 64.882812 271.464844 65.988281 C 256.851562 66.851562 244.878906 74.722656 238.246094 87.945312 C 231.367188 101.660156 234.070312 120.171875 244.691406 131.609375 C 247.578125 134.746094 248.683594 136.59375 248.683594 138.375 C 248.746094 140.589844 240.027344 157.441406 238.859375 157.441406 C 238.367188 157.441406 231.738281 155.71875 224.121094 153.566406 L 210.308594 149.753906 L 210.121094 116.972656 C 210 88.992188 210.121094 83.949219 210.921875 82.472656 C 211.78125 80.75 212.761719 80.136719 221.050781 76.382812 C 226.148438 74.109375 231.984375 69.679688 235.238281 65.621094 C 238.308594 61.808594 241.5625 55.226562 242.851562 50.121094 C 244.015625 45.449219 244.015625 35.792969 242.851562 31.058594 C 239.71875 18.632812 230.507812 8.671875 217.984375 3.996094 C 214.113281 2.523438 212.210938 2.277344 206.007812 2.089844 C 200.789062 1.90625 197.65625 2.152344 195.261719 2.765625 Z M 217.121094 15.621094 C 228.113281 20.847656 234.808594 33.394531 232.84375 45.078125 C 230.570312 59.101562 219.148438 68.878906 205.085938 68.878906 C 179.789062 68.878906 167.449219 38.808594 185.378906 20.910156 C 193.789062 12.421875 206.132812 10.394531 217.121094 15.621094 Z M 279.9375 77.550781 C 293.9375 80.75 303.886719 95.386719 301.613281 109.285156 C 299.097656 124.539062 284.050781 135.484375 269.191406 132.902344 C 260.289062 131.304688 251.878906 124.785156 247.886719 116.421875 C 245.984375 112.421875 245.921875 111.871094 245.921875 104.859375 C 245.921875 97.722656 245.984375 97.292969 247.949219 93.359375 C 249.050781 91.082031 251.324219 87.699219 252.984375 85.917969 C 256.175781 82.410156 262.5625 78.597656 266.859375 77.550781 C 270.113281 76.8125 276.683594 76.753906 279.9375 77.550781 Z M 139.816406 122.753906 C 142.640625 124.355469 145.097656 128.042969 145.773438 131.488281 C 147.0625 138.5 140.492188 145.757812 132.9375 145.757812 C 129.746094 145.757812 124.894531 143.050781 123.050781 140.222656 C 120.71875 136.714844 120.351562 131.609375 122.132812 128.105469 C 125.570312 121.339844 133.246094 119.003906 139.816406 122.753906 Z M 213.5625 194.402344 C 228.726562 199.078125 238.183594 211.746094 238.246094 227.429688 C 238.308594 248.707031 223.261719 263.835938 202.015625 263.835938 C 185.867188 263.835938 171.867188 253.320312 167.9375 238.253906 C 166.773438 233.640625 166.710938 222.816406 167.9375 218.328125 C 171.5 204.859375 182.613281 195.078125 196.796875 192.867188 C 200.359375 192.3125 209.449219 193.171875 213.5625 194.402344 Z M 176.71875 326.507812 C 179.484375 327.921875 180.464844 329.457031 180.894531 332.902344 C 181.507812 337.945312 177.761719 342.25 172.667969 342.25 C 168.859375 342.25 166.21875 340.34375 164.808594 336.714844 C 163.457031 333.085938 164.316406 329.949219 167.324219 327.246094 C 169.964844 324.96875 173.21875 324.722656 176.71875 326.507812 Z M 96.527344 326.628906 C 106.65625 328.78125 115.621094 337.269531 118.203125 347.171875 C 120.78125 357.074219 117.894531 367.097656 110.527344 374.167969 C 93.886719 390.097656 67.050781 381.367188 63.121094 358.734375 C 59.867188 339.484375 77.492188 322.570312 96.527344 326.628906 Z M 329 339.238281 C 332.4375 340.652344 335.507812 343.542969 337.414062 346.988281 C 342.203125 355.71875 337.167969 367.160156 327.34375 370.050781 C 316.535156 373.1875 305.667969 364.453125 306.527344 353.320312 C 306.894531 349.140625 307.9375 346.742188 310.824219 343.480469 C 315.367188 338.253906 322.675781 336.59375 329 339.238281 Z M 235.542969 349.632812 C 240.949219 353.136719 240.578125 361.625 234.929688 364.328125 C 227.253906 367.957031 219.394531 359.964844 223.632812 352.765625 C 226.210938 348.339844 231.492188 346.925781 235.542969 349.632812 Z M 235.542969 349.632812 "/>
<path style=" stroke:none;fill-rule:nonzero;fill:rgb(0%,0%,0%);fill-opacity:1;" d="M 361.667969 227.796875 L 361.667969 301.96875 L 404.035156 301.96875 L 404.035156 269.003906 C 404.035156 248.585938 404.28125 236.222656 404.585938 236.46875 C 404.957031 236.65625 411.585938 246.125 419.449219 257.566406 C 445.789062 295.757812 448.984375 300.183594 450.949219 301.414062 C 452.667969 302.460938 454.203125 302.582031 468.386719 302.582031 L 483.859375 302.582031 L 483.859375 154.367188 L 441.492188 154.367188 L 441.367188 186.59375 L 441.183594 218.820312 L 432.773438 207.320312 C 428.167969 200.984375 418.035156 186.59375 410.175781 175.398438 C 402.378906 164.207031 395.5 154.859375 394.949219 154.613281 C 394.394531 154.367188 386.65625 154.058594 377.816406 153.875 L 361.667969 153.628906 Z M 361.667969 227.796875 "/>
<path style=" stroke:none;fill-rule:nonzero;fill:rgb(0%,9988%,34%);fill-opacity:1;" d="M 66.808594 205.535156 L 66.621094 256.765625 L 65.085938 259.53125 C 63.121094 263.101562 60.421875 264.453125 55.570312 264.453125 C 50.964844 264.390625 48.878906 263.652344 41.203125 259.285156 L 35 255.78125 L 19.21875 265.066406 C 10.5 270.234375 3.070312 274.722656 2.640625 275.09375 C 2.085938 275.644531 2.515625 276.8125 4.359375 280.011719 C 11.238281 291.636719 23.332031 300 39.914062 304.613281 C 43.78125 305.65625 46.359375 305.902344 55.570312 305.902344 C 68.402344 305.964844 73.007812 305.042969 82.585938 300.492188 C 98.921875 292.742188 107.515625 279.582031 109.296875 259.839844 C 109.972656 252.460938 110.15625 162.855469 109.542969 157.566406 L 109.113281 154.367188 L 66.929688 154.367188 Z M 66.808594 205.535156 "/>
<path style=" stroke:none;fill-rule:nonzero;fill:rgb(0%,0%,0%);fill-opacity:1;" d="M 297.808594 228.476562 L 297.808594 302.582031 L 318.5625 302.460938 L 339.253906 302.277344 L 339.4375 228.289062 L 339.5625 154.367188 L 297.808594 154.367188 Z M 297.808594 228.476562 "/>
<path style=" stroke:none;fill-rule:nonzero;fill:rgb(0%,0%,0%);fill-opacity:1;" d="M 382.667969 347.910156 C 381.070312 350.984375 361.667969 394.710938 361.667969 395.140625 C 361.667969 395.324219 364.308594 395.386719 367.5625 395.324219 L 373.457031 395.140625 L 375.484375 390.222656 L 377.507812 385.300781 L 400.65625 385.300781 L 402.746094 390.34375 L 404.832031 395.449219 L 410.542969 395.449219 C 414.902344 395.449219 416.316406 395.265625 416.316406 394.648438 C 416.316406 394.21875 411.527344 383.085938 405.632812 369.863281 L 394.886719 345.941406 L 389.359375 345.757812 L 383.832031 345.570312 Z M 393.105469 367.035156 L 396.605469 375.460938 L 389.484375 375.644531 C 385.550781 375.707031 382.238281 375.644531 382.050781 375.523438 C 381.867188 375.339844 383.34375 371.277344 385.308594 366.542969 C 387.273438 361.808594 389.050781 358.054688 389.238281 358.242188 C 389.421875 358.488281 391.140625 362.421875 393.105469 367.035156 Z M 393.105469 367.035156 "/>
<path style=" stroke:none;fill-rule:nonzero;fill:rgb(0%,0%,0%);fill-opacity:1;" d="M 421.84375 370.480469 L 421.84375 395.511719 L 427.550781 395.324219 L 433.203125 395.140625 L 433.386719 388.5 L 433.570312 381.917969 L 438.914062 381.917969 C 455.859375 381.917969 464.394531 375.832031 464.394531 363.714844 C 464.394531 355.65625 460.21875 349.878906 452.238281 347.109375 C 449.78125 346.25 446.402344 346.003906 435.535156 345.757812 L 421.84375 345.511719 Z M 447.878906 356.335938 C 451.070312 357.6875 452.542969 360.023438 452.542969 363.777344 C 452.542969 369.988281 449.289062 372.078125 439.648438 372.078125 L 433.507812 372.078125 L 433.507812 355.472656 L 439.648438 355.472656 C 443.515625 355.472656 446.585938 355.78125 447.878906 356.335938 Z M 447.878906 356.335938 "/>
<path style=" stroke:none;fill-rule:nonzero;fill:rgb(0%,0%,0%);fill-opacity:1;" d="M 472.5 346.433594 C 472.316406 346.800781 472.253906 357.996094 472.316406 371.15625 L 472.5 395.140625 L 478.210938 395.324219 L 483.859375 395.511719 L 483.859375 345.632812 L 478.332031 345.632812 C 474.464844 345.632812 472.683594 345.878906 472.5 346.433594 Z M 472.5 346.433594 "/>
</g>
</svg>
